<?xml version="1.0" encoding="utf-8"?>
<!-- Generator: Adobe Illustrator 26.0.1, SVG Export Plug-In . SVG Version: 6.00 Build 0)  -->
<svg version="1.1" id="Ebene_1" xmlns="http://www.w3.org/2000/svg" xmlns:xlink="http://www.w3.org/1999/xlink" x="0px" y="0px"
	 viewBox="0 0 500 500" style="enable-background:new 0 0 500 500;" xml:space="preserve">
<style type="text/css">
	.st0{fill:#FFFFFF;}
</style>
<g>
	<polygon class="st0" points="173.5,298.5 49.6,208.5 202.7,208.5 250,63 297.3,208.5 450.4,208.5 326.5,298.5 373.8,444.1 
		250,354.1 126.2,444.1 	"/>
	<path d="M250,99.7l34,104.5l5.1,15.7h16.5h109.9l-88.9,64.6l-13.3,9.7l5.1,15.7l34,104.5l-88.9-64.6l-13.3-9.7l-13.3,9.7
		l-88.9,64.6l34-104.5l5.1-15.7l-13.3-9.7l-88.9-64.6h109.9h16.5l5.1-15.7L250,99.7 M250,26.2l-55.5,170.9H14.7l145.4,105.7
		l-55.5,170.9L250,368.1l145.4,105.7l-55.5-170.9l145.4-105.7H305.5L250,26.2L250,26.2z"/>
</g>
</svg>
